<?xml version="1.0" encoding="UTF-8" standalone="no"?>
<svg xmlns:svg="http://www.w3.org/2000/svg" xmlns="http://www.w3.org/2000/svg" viewBox="0 0 204 272">
	<g stroke-width="5.5" stroke-linecap="round" stroke="#252525"
		transform="translate(34, 34)">
		<line x1="0" y1="17" x2="0" y2="30" transform="rotate(0, 0, 0)" opacity="1"/>
		<line x1="0" y1="17" x2="0" y2="30" transform="rotate(30, 0, 0)" opacity="0.9173553719008265"/>
		<line x1="0" y1="17" x2="0" y2="30" transform="rotate(60, 0, 0)" opacity="0.8347107438016529"/>
		<line x1="0" y1="17" x2="0" y2="30" transform="rotate(90, 0, 0)" opacity="0.7520661157024794"/>
		<line x1="0" y1="17" x2="0" y2="30" transform="rotate(120, 0, 0)" opacity="0.6694214876033058"/>
		<line x1="0" y1="17" x2="0" y2="30" transform="rotate(150, 0, 0)" opacity="0.5867768595041323"/>
		<line x1="0" y1="17" x2="0" y2="30" transform="rotate(180, 0, 0)" opacity="0.5041322314049588"/>
		<line x1="0" y1="17" x2="0" y2="30" transform="rotate(210, 0, 0)" opacity="0.42148760330578516"/>
		<line x1="0" y1="17" x2="0" y2="30" transform="rotate(240, 0, 0)" opacity="0.33884297520661155"/>
		<line x1="0" y1="17" x2="0" y2="30" transform="rotate(270, 0, 0)" opacity="0.25619834710743805"/>
		<line x1="0" y1="17" x2="0" y2="30" transform="rotate(300, 0, 0)" opacity="0.17355371900826455"/>
		<line x1="0" y1="17" x2="0" y2="30" transform="rotate(330, 0, 0)" opacity="0.09090909090909094"/>
	</g>
	<g stroke-width="5.5" stroke-linecap="round" stroke="#252525"
		transform="translate(102, 34)">
		<line x1="0" y1="17" x2="0" y2="30" transform="rotate(30, 0, 0)" opacity="1"/>
		<line x1="0" y1="17" x2="0" y2="30" transform="rotate(60, 0, 0)" opacity="0.9173553719008265"/>
		<line x1="0" y1="17" x2="0" y2="30" transform="rotate(90, 0, 0)" opacity="0.8347107438016529"/>
		<line x1="0" y1="17" x2="0" y2="30" transform="rotate(120, 0, 0)" opacity="0.7520661157024794"/>
		<line x1="0" y1="17" x2="0" y2="30" transform="rotate(150, 0, 0)" opacity="0.6694214876033058"/>
		<line x1="0" y1="17" x2="0" y2="30" transform="rotate(180, 0, 0)" opacity="0.5867768595041323"/>
		<line x1="0" y1="17" x2="0" y2="30" transform="rotate(210, 0, 0)" opacity="0.5041322314049588"/>
		<line x1="0" y1="17" x2="0" y2="30" transform="rotate(240, 0, 0)" opacity="0.42148760330578516"/>
		<line x1="0" y1="17" x2="0" y2="30" transform="rotate(270, 0, 0)" opacity="0.33884297520661155"/>
		<line x1="0" y1="17" x2="0" y2="30" transform="rotate(300, 0, 0)" opacity="0.25619834710743805"/>
		<line x1="0" y1="17" x2="0" y2="30" transform="rotate(330, 0, 0)" opacity="0.17355371900826455"/>
		<line x1="0" y1="17" x2="0" y2="30" transform="rotate(360, 0, 0)" opacity="0.09090909090909094"/>
	</g>
	<g stroke-width="5.5" stroke-linecap="round" stroke="#252525"
		transform="translate(170, 34)">
		<line x1="0" y1="17" x2="0" y2="30" transform="rotate(60, 0, 0)" opacity="1"/>
		<line x1="0" y1="17" x2="0" y2="30" transform="rotate(90, 0, 0)" opacity="0.9173553719008265"/>
		<line x1="0" y1="17" x2="0" y2="30" transform="rotate(120, 0, 0)" opacity="0.8347107438016529"/>
		<line x1="0" y1="17" x2="0" y2="30" transform="rotate(150, 0, 0)" opacity="0.7520661157024794"/>
		<line x1="0" y1="17" x2="0" y2="30" transform="rotate(180, 0, 0)" opacity="0.6694214876033058"/>
		<line x1="0" y1="17" x2="0" y2="30" transform="rotate(210, 0, 0)" opacity="0.5867768595041323"/>
		<line x1="0" y1="17" x2="0" y2="30" transform="rotate(240, 0, 0)" opacity="0.5041322314049588"/>
		<line x1="0" y1="17" x2="0" y2="30" transform="rotate(270, 0, 0)" opacity="0.42148760330578516"/>
		<line x1="0" y1="17" x2="0" y2="30" transform="rotate(300, 0, 0)" opacity="0.33884297520661155"/>
		<line x1="0" y1="17" x2="0" y2="30" transform="rotate(330, 0, 0)" opacity="0.25619834710743805"/>
		<line x1="0" y1="17" x2="0" y2="30" transform="rotate(0, 0, 0)" opacity="0.17355371900826455"/>
		<line x1="0" y1="17" x2="0" y2="30" transform="rotate(30, 0, 0)" opacity="0.09090909090909094"/>
	</g>	
	<g stroke-width="5.5" stroke-linecap="round" stroke="#252525"
		transform="translate(34, 102)">
		<line x1="0" y1="17" x2="0" y2="30" transform="rotate(90, 0, 0)" opacity="1"/>
		<line x1="0" y1="17" x2="0" y2="30" transform="rotate(120, 0, 0)" opacity="0.9173553719008265"/>
		<line x1="0" y1="17" x2="0" y2="30" transform="rotate(150, 0, 0)" opacity="0.8347107438016529"/>
		<line x1="0" y1="17" x2="0" y2="30" transform="rotate(180, 0, 0)" opacity="0.7520661157024794"/>
		<line x1="0" y1="17" x2="0" y2="30" transform="rotate(210, 0, 0)" opacity="0.6694214876033058"/>
		<line x1="0" y1="17" x2="0" y2="30" transform="rotate(240, 0, 0)" opacity="0.5867768595041323"/>
		<line x1="0" y1="17" x2="0" y2="30" transform="rotate(270, 0, 0)" opacity="0.5041322314049588"/>
		<line x1="0" y1="17" x2="0" y2="30" transform="rotate(300, 0, 0)" opacity="0.42148760330578516"/>
		<line x1="0" y1="17" x2="0" y2="30" transform="rotate(330, 0, 0)" opacity="0.33884297520661155"/>
		<line x1="0" y1="17" x2="0" y2="30" transform="rotate(0, 0, 0)" opacity="0.25619834710743805"/>
		<line x1="0" y1="17" x2="0" y2="30" transform="rotate(30, 0, 0)" opacity="0.17355371900826455"/>
		<line x1="0" y1="17" x2="0" y2="30" transform="rotate(60, 0, 0)" opacity="0.09090909090909094"/>
	</g>
	<g stroke-width="5.5" stroke-linecap="round" stroke="#252525"
		transform="translate(102, 102)">
		<line x1="0" y1="17" x2="0" y2="30" transform="rotate(120, 0, 0)" opacity="1"/>
		<line x1="0" y1="17" x2="0" y2="30" transform="rotate(150, 0, 0)" opacity="0.9173553719008265"/>
		<line x1="0" y1="17" x2="0" y2="30" transform="rotate(180, 0, 0)" opacity="0.8347107438016529"/>
		<line x1="0" y1="17" x2="0" y2="30" transform="rotate(210, 0, 0)" opacity="0.7520661157024794"/>
		<line x1="0" y1="17" x2="0" y2="30" transform="rotate(240, 0, 0)" opacity="0.6694214876033058"/>
		<line x1="0" y1="17" x2="0" y2="30" transform="rotate(270, 0, 0)" opacity="0.5867768595041323"/>
		<line x1="0" y1="17" x2="0" y2="30" transform="rotate(300, 0, 0)" opacity="0.5041322314049588"/>
		<line x1="0" y1="17" x2="0" y2="30" transform="rotate(330, 0, 0)" opacity="0.42148760330578516"/>
		<line x1="0" y1="17" x2="0" y2="30" transform="rotate(0, 0, 0)" opacity="0.33884297520661155"/>
		<line x1="0" y1="17" x2="0" y2="30" transform="rotate(30, 0, 0)" opacity="0.25619834710743805"/>
		<line x1="0" y1="17" x2="0" y2="30" transform="rotate(60, 0, 0)" opacity="0.17355371900826455"/>
		<line x1="0" y1="17" x2="0" y2="30" transform="rotate(90, 0, 0)" opacity="0.09090909090909094"/>
	</g>
	<g stroke-width="5.5" stroke-linecap="round" stroke="#252525"
		transform="translate(170, 102)">
		<line x1="0" y1="17" x2="0" y2="30" transform="rotate(150, 0, 0)" opacity="1"/>
		<line x1="0" y1="17" x2="0" y2="30" transform="rotate(180, 0, 0)" opacity="0.9173553719008265"/>
		<line x1="0" y1="17" x2="0" y2="30" transform="rotate(210, 0, 0)" opacity="0.8347107438016529"/>
		<line x1="0" y1="17" x2="0" y2="30" transform="rotate(240, 0, 0)" opacity="0.7520661157024794"/>
		<line x1="0" y1="17" x2="0" y2="30" transform="rotate(270, 0, 0)" opacity="0.6694214876033058"/>
		<line x1="0" y1="17" x2="0" y2="30" transform="rotate(300, 0, 0)" opacity="0.5867768595041323"/>
		<line x1="0" y1="17" x2="0" y2="30" transform="rotate(330, 0, 0)" opacity="0.5041322314049588"/>
		<line x1="0" y1="17" x2="0" y2="30" transform="rotate(0, 0, 0)" opacity="0.42148760330578516"/>
		<line x1="0" y1="17" x2="0" y2="30" transform="rotate(30, 0, 0)" opacity="0.33884297520661155"/>
		<line x1="0" y1="17" x2="0" y2="30" transform="rotate(60, 0, 0)" opacity="0.25619834710743805"/>
		<line x1="0" y1="17" x2="0" y2="30" transform="rotate(90, 0, 0)" opacity="0.17355371900826455"/>
		<line x1="0" y1="17" x2="0" y2="30" transform="rotate(120, 0, 0)" opacity="0.09090909090909094"/>
	</g>	
	<g stroke-width="5.5" stroke-linecap="round" stroke="#252525"
		transform="translate(34, 170)">
		<line x1="0" y1="17" x2="0" y2="30" transform="rotate(180, 0, 0)" opacity="1"/>
		<line x1="0" y1="17" x2="0" y2="30" transform="rotate(210, 0, 0)" opacity="0.9173553719008265"/>
		<line x1="0" y1="17" x2="0" y2="30" transform="rotate(240, 0, 0)" opacity="0.8347107438016529"/>
		<line x1="0" y1="17" x2="0" y2="30" transform="rotate(270, 0, 0)" opacity="0.7520661157024794"/>
		<line x1="0" y1="17" x2="0" y2="30" transform="rotate(300, 0, 0)" opacity="0.6694214876033058"/>
		<line x1="0" y1="17" x2="0" y2="30" transform="rotate(330, 0, 0)" opacity="0.5867768595041323"/>
		<line x1="0" y1="17" x2="0" y2="30" transform="rotate(0, 0, 0)" opacity="0.5041322314049588"/>
		<line x1="0" y1="17" x2="0" y2="30" transform="rotate(30, 0, 0)" opacity="0.42148760330578516"/>
		<line x1="0" y1="17" x2="0" y2="30" transform="rotate(60, 0, 0)" opacity="0.33884297520661155"/>
		<line x1="0" y1="17" x2="0" y2="30" transform="rotate(90, 0, 0)" opacity="0.25619834710743805"/>
		<line x1="0" y1="17" x2="0" y2="30" transform="rotate(120, 0, 0)" opacity="0.17355371900826455"/>
		<line x1="0" y1="17" x2="0" y2="30" transform="rotate(150, 0, 0)" opacity="0.09090909090909094"/>
	</g>
	<g stroke-width="5.5" stroke-linecap="round" stroke="#252525"
		transform="translate(102, 170)">
		<line x1="0" y1="17" x2="0" y2="30" transform="rotate(210, 0, 0)" opacity="1"/>
		<line x1="0" y1="17" x2="0" y2="30" transform="rotate(240, 0, 0)" opacity="0.9173553719008265"/>
		<line x1="0" y1="17" x2="0" y2="30" transform="rotate(270, 0, 0)" opacity="0.8347107438016529"/>
		<line x1="0" y1="17" x2="0" y2="30" transform="rotate(300, 0, 0)" opacity="0.7520661157024794"/>
		<line x1="0" y1="17" x2="0" y2="30" transform="rotate(330, 0, 0)" opacity="0.6694214876033058"/>
		<line x1="0" y1="17" x2="0" y2="30" transform="rotate(0, 0, 0)" opacity="0.5867768595041323"/>
		<line x1="0" y1="17" x2="0" y2="30" transform="rotate(30, 0, 0)" opacity="0.5041322314049588"/>
		<line x1="0" y1="17" x2="0" y2="30" transform="rotate(60, 0, 0)" opacity="0.42148760330578516"/>
		<line x1="0" y1="17" x2="0" y2="30" transform="rotate(90, 0, 0)" opacity="0.33884297520661155"/>
		<line x1="0" y1="17" x2="0" y2="30" transform="rotate(120, 0, 0)" opacity="0.25619834710743805"/>
		<line x1="0" y1="17" x2="0" y2="30" transform="rotate(150, 0, 0)" opacity="0.17355371900826455"/>
		<line x1="0" y1="17" x2="0" y2="30" transform="rotate(180, 0, 0)" opacity="0.09090909090909094"/>
	</g>
	<g stroke-width="5.5" stroke-linecap="round" stroke="#252525"
		transform="translate(170, 170)">
		<line x1="0" y1="17" x2="0" y2="30" transform="rotate(240, 0, 0)" opacity="1"/>
		<line x1="0" y1="17" x2="0" y2="30" transform="rotate(270, 0, 0)" opacity="0.9173553719008265"/>
		<line x1="0" y1="17" x2="0" y2="30" transform="rotate(300, 0, 0)" opacity="0.8347107438016529"/>
		<line x1="0" y1="17" x2="0" y2="30" transform="rotate(330, 0, 0)" opacity="0.7520661157024794"/>
		<line x1="0" y1="17" x2="0" y2="30" transform="rotate(0, 0, 0)" opacity="0.6694214876033058"/>
		<line x1="0" y1="17" x2="0" y2="30" transform="rotate(30, 0, 0)" opacity="0.5867768595041323"/>
		<line x1="0" y1="17" x2="0" y2="30" transform="rotate(60, 0, 0)" opacity="0.5041322314049588"/>
		<line x1="0" y1="17" x2="0" y2="30" transform="rotate(90, 0, 0)" opacity="0.42148760330578516"/>
		<line x1="0" y1="17" x2="0" y2="30" transform="rotate(120, 0, 0)" opacity="0.33884297520661155"/>
		<line x1="0" y1="17" x2="0" y2="30" transform="rotate(150, 0, 0)" opacity="0.25619834710743805"/>
		<line x1="0" y1="17" x2="0" y2="30" transform="rotate(180, 0, 0)" opacity="0.17355371900826455"/>
		<line x1="0" y1="17" x2="0" y2="30" transform="rotate(210, 0, 0)" opacity="0.09090909090909094"/>
	</g>
	
	<g stroke-width="5.5" stroke-linecap="round" stroke="#252525"
		transform="translate(34, 238)">
		<line x1="0" y1="17" x2="0" y2="30" transform="rotate(270, 0, 0)" opacity="1"/>
		<line x1="0" y1="17" x2="0" y2="30" transform="rotate(300, 0, 0)" opacity="0.9173553719008265"/>
		<line x1="0" y1="17" x2="0" y2="30" transform="rotate(330, 0, 0)" opacity="0.8347107438016529"/>
		<line x1="0" y1="17" x2="0" y2="30" transform="rotate(0, 0, 0)" opacity="0.7520661157024794"/>
		<line x1="0" y1="17" x2="0" y2="30" transform="rotate(30, 0, 0)" opacity="0.6694214876033058"/>
		<line x1="0" y1="17" x2="0" y2="30" transform="rotate(60, 0, 0)" opacity="0.5867768595041323"/>
		<line x1="0" y1="17" x2="0" y2="30" transform="rotate(90, 0, 0)" opacity="0.5041322314049588"/>
		<line x1="0" y1="17" x2="0" y2="30" transform="rotate(120, 0, 0)" opacity="0.42148760330578516"/>
		<line x1="0" y1="17" x2="0" y2="30" transform="rotate(150, 0, 0)" opacity="0.33884297520661155"/>
		<line x1="0" y1="17" x2="0" y2="30" transform="rotate(180, 0, 0)" opacity="0.25619834710743805"/>
		<line x1="0" y1="17" x2="0" y2="30" transform="rotate(210, 0, 0)" opacity="0.17355371900826455"/>
		<line x1="0" y1="17" x2="0" y2="30" transform="rotate(240, 0, 0)" opacity="0.09090909090909094"/>
	</g>
	<g stroke-width="5.5" stroke-linecap="round" stroke="#252525"
		transform="translate(102, 238)">
		<line x1="0" y1="17" x2="0" y2="30" transform="rotate(300, 0, 0)" opacity="1"/>
		<line x1="0" y1="17" x2="0" y2="30" transform="rotate(330, 0, 0)" opacity="0.9173553719008265"/>
		<line x1="0" y1="17" x2="0" y2="30" transform="rotate(0, 0, 0)" opacity="0.8347107438016529"/>
		<line x1="0" y1="17" x2="0" y2="30" transform="rotate(30, 0, 0)" opacity="0.7520661157024794"/>
		<line x1="0" y1="17" x2="0" y2="30" transform="rotate(60, 0, 0)" opacity="0.6694214876033058"/>
		<line x1="0" y1="17" x2="0" y2="30" transform="rotate(90, 0, 0)" opacity="0.5867768595041323"/>
		<line x1="0" y1="17" x2="0" y2="30" transform="rotate(120, 0, 0)" opacity="0.5041322314049588"/>
		<line x1="0" y1="17" x2="0" y2="30" transform="rotate(150, 0, 0)" opacity="0.42148760330578516"/>
		<line x1="0" y1="17" x2="0" y2="30" transform="rotate(180, 0, 0)" opacity="0.33884297520661155"/>
		<line x1="0" y1="17" x2="0" y2="30" transform="rotate(210, 0, 0)" opacity="0.25619834710743805"/>
		<line x1="0" y1="17" x2="0" y2="30" transform="rotate(240, 0, 0)" opacity="0.17355371900826455"/>
		<line x1="0" y1="17" x2="0" y2="30" transform="rotate(270, 0, 0)" opacity="0.09090909090909094"/>
	</g>
	<g stroke-width="5.5" stroke-linecap="round" stroke="#252525"
		transform="translate(170, 238)">
		<line x1="0" y1="17" x2="0" y2="30" transform="rotate(330, 0, 0)" opacity="1"/>
		<line x1="0" y1="17" x2="0" y2="30" transform="rotate(0, 0, 0)" opacity="0.9173553719008265"/>
		<line x1="0" y1="17" x2="0" y2="30" transform="rotate(30, 0, 0)" opacity="0.8347107438016529"/>
		<line x1="0" y1="17" x2="0" y2="30" transform="rotate(60, 0, 0)" opacity="0.7520661157024794"/>
		<line x1="0" y1="17" x2="0" y2="30" transform="rotate(90, 0, 0)" opacity="0.6694214876033058"/>
		<line x1="0" y1="17" x2="0" y2="30" transform="rotate(120, 0, 0)" opacity="0.5867768595041323"/>
		<line x1="0" y1="17" x2="0" y2="30" transform="rotate(150, 0, 0)" opacity="0.5041322314049588"/>
		<line x1="0" y1="17" x2="0" y2="30" transform="rotate(180, 0, 0)" opacity="0.42148760330578516"/>
		<line x1="0" y1="17" x2="0" y2="30" transform="rotate(210, 0, 0)" opacity="0.33884297520661155"/>
		<line x1="0" y1="17" x2="0" y2="30" transform="rotate(240, 0, 0)" opacity="0.25619834710743805"/>
		<line x1="0" y1="17" x2="0" y2="30" transform="rotate(270, 0, 0)" opacity="0.17355371900826455"/>
		<line x1="0" y1="17" x2="0" y2="30" transform="rotate(300, 0, 0)" opacity="0.09090909090909094"/>
	</g>			
</svg>
